<?xml version="1.0" encoding="UTF-8" standalone="no"?>
<!-- Created with Inkscape (http://www.inkscape.org/) -->

<svg
   xmlns:dc="http://purl.org/dc/elements/1.1/"
   xmlns:cc="http://creativecommons.org/ns#"
   xmlns:rdf="http://www.w3.org/1999/02/22-rdf-syntax-ns#"
   xmlns:svg="http://www.w3.org/2000/svg"
   xmlns="http://www.w3.org/2000/svg"
   xmlns:sodipodi="http://sodipodi.sourceforge.net/DTD/sodipodi-0.dtd"
   xmlns:inkscape="http://www.inkscape.org/namespaces/inkscape"
   width="22.67555mm"
   height="7.5305357mm"
   viewBox="0 0 80.346439 26.683"
   id="svg4189"
   version="1.1"
   inkscape:version="0.91 r13725"
   sodipodi:docname="vivo.svg">
  <defs
     id="defs4191" />
  <sodipodi:namedview
     id="base"
     pagecolor="#ffffff"
     bordercolor="#666666"
     borderopacity="1.0"
     inkscape:pageopacity="0.0"
     inkscape:pageshadow="2"
     inkscape:zoom="2.8"
     inkscape:cx="-109.42057"
     inkscape:cy="19.758893"
     inkscape:document-units="px"
     inkscape:current-layer="layer1"
     showgrid="false"
     fit-margin-top="0"
     fit-margin-left="0"
     fit-margin-right="0"
     fit-margin-bottom="0"
     inkscape:window-width="1920"
     inkscape:window-height="1056"
     inkscape:window-x="0"
     inkscape:window-y="24"
     inkscape:window-maximized="1" />
  <metadata
     id="metadata4194">
    <rdf:RDF>
      <cc:Work
         rdf:about="">
        <dc:format>image/svg+xml</dc:format>
        <dc:type
           rdf:resource="http://purl.org/dc/dcmitype/StillImage" />
        <dc:title></dc:title>
      </cc:Work>
    </rdf:RDF>
  </metadata>
  <g
     inkscape:label="Layer 1"
     inkscape:groupmode="layer"
     id="layer1"
     transform="translate(-285.54107,-641.87785)">
    <g
       transform="translate(285.46107,390.62685)"
       id="g775">
      <path
         style="fill:#f6ec80"
         inkscape:connector-curvature="0"
         d="m 0.449,252.244 c -0.667,0.23 1.77,3.359 2.6,4.78 1.507,2.575 2.944,5.141 4.854,7.476 3.337,4.08 6.546,7.873 9.234,12.338 2.572,-8.336 2.076,-17.582 4.726,-25.587 -2.754,4.278 -5.188,8.833 -5.639,13.864 C 14.361,263.243 1.274,250.574 0.08,253.349"
         id="path777" />
      <path
         style="fill:#f6ec80"
         inkscape:connector-curvature="0"
         d="m 26.988,253.35 c -0.409,8.006 4.868,16.622 5.243,24.584 2.395,-7.308 1.365,-21.237 -5.979,-24.584"
         id="path779" />
      <path
         style="fill:#f6ec80"
         inkscape:connector-curvature="0"
         d="m 39.521,252.244 c 1.846,5.102 5.038,10.723 7.371,15.813 1.178,2.57 2.673,7.041 4.353,8.854 1.347,-4.495 4.106,-8.559 5.867,-12.883 1.658,-4.07 2.992,-8.309 4.553,-12.409 -2.101,6.314 -8.643,10.368 -10.799,16.806 -4.296,-4.514 -5.974,-11.07 -10.976,-15.074"
         id="path781" />
      <path
         style="fill:#f6ec80"
         inkscape:connector-curvature="0"
         d="m 74.169,252.98 c -4.993,-3.189 -8.24,11.287 -7.759,14.465 0.817,5.408 5.607,11.48 10.727,6.546 3.782,-3.645 3.742,-9.578 2.643,-14.292 -0.825,-3.535 -6.247,-12.053 -8.927,-4.139"
         id="path783" />
    </g>
  </g>
</svg>
