<?xml version="1.0" encoding="UTF-8" standalone="no"?>
<!-- Created with Inkscape (http://www.inkscape.org/) -->

<svg
   xmlns:dc="http://purl.org/dc/elements/1.1/"
   xmlns:cc="http://creativecommons.org/ns#"
   xmlns:rdf="http://www.w3.org/1999/02/22-rdf-syntax-ns#"
   xmlns:svg="http://www.w3.org/2000/svg"
   xmlns="http://www.w3.org/2000/svg"
   xmlns:sodipodi="http://sodipodi.sourceforge.net/DTD/sodipodi-0.dtd"
   xmlns:inkscape="http://www.inkscape.org/namespaces/inkscape"
   width="128.39192mm"
   height="9.0311108mm"
   viewBox="0 0 454.93201 31.999999"
   id="svg5149"
   version="1.1"
   inkscape:version="0.91 r13725"
   sodipodi:docname="player_futura.svg">
  <defs
     id="defs5151" />
  <sodipodi:namedview
     id="base"
     pagecolor="#ffffff"
     bordercolor="#666666"
     borderopacity="1.0"
     inkscape:pageopacity="0.0"
     inkscape:pageshadow="2"
     inkscape:zoom="1.4"
     inkscape:cx="104.99795"
     inkscape:cy="16.637019"
     inkscape:document-units="px"
     inkscape:current-layer="layer1"
     showgrid="false"
     inkscape:window-width="1920"
     inkscape:window-height="1056"
     inkscape:window-x="0"
     inkscape:window-y="24"
     inkscape:window-maximized="1"
     fit-margin-top="0"
     fit-margin-left="0"
     fit-margin-right="0"
     fit-margin-bottom="0" />
  <metadata
     id="metadata5154">
    <rdf:RDF>
      <cc:Work
         rdf:about="">
        <dc:format>image/svg+xml</dc:format>
        <dc:type
           rdf:resource="http://purl.org/dc/dcmitype/StillImage" />
        <dc:title></dc:title>
      </cc:Work>
    </rdf:RDF>
  </metadata>
  <g
     inkscape:label="Layer 1"
     inkscape:groupmode="layer"
     id="layer1"
     transform="translate(-112.534,-522.07648)">
    <path
       inkscape:connector-curvature="0"
       style="fill:#a81e7b"
       d="m 567.466,538.07749 c 0,7.868 -2.594,14.249 -5.795,14.249 l -336.445,0 c -3.199,0 -5.793,-6.381 -5.793,-14.249 l 0,0 c 0,-7.87 2.594,-14.249 5.793,-14.249 l 336.444,0 c 3.202,0 5.796,6.379 5.796,14.249 l 0,0 z"
       id="path769" />
    <g
       id="play"
       inkscape:label="#g5765">
      <circle
         id="circle771"
         r="16"
         cy="538.07648"
         cx="250.88399"
         style="fill:#f6ec80" />
      <path
         id="path773"
         d="m 244.406,530.01149 c -0.171,4.061 1.886,10.512 2.008,15.309 3.857,-3.082 8.214,-7.316 11.579,-11.07 -4.811,-2.04 -8.342,-1.943 -13.587,-4.239"
         style="fill:#0f0e0e"
         inkscape:connector-curvature="0" />
    </g>
    <g
       transform="translate(112.454,271.56849)"
       id="g775">
      <path
         style="fill:#f6ec80"
         inkscape:connector-curvature="0"
         d="m 0.449,252.244 c -0.667,0.23 1.77,3.359 2.6,4.78 1.507,2.575 2.944,5.141 4.854,7.476 3.337,4.08 6.546,7.873 9.234,12.338 2.572,-8.336 2.076,-17.582 4.726,-25.587 -2.754,4.278 -5.188,8.833 -5.639,13.864 C 14.361,263.243 1.274,250.574 0.08,253.349"
         id="path777" />
      <path
         style="fill:#f6ec80"
         inkscape:connector-curvature="0"
         d="m 26.988,253.35 c -0.409,8.006 4.868,16.622 5.243,24.584 2.395,-7.308 1.365,-21.237 -5.979,-24.584"
         id="path779" />
      <path
         style="fill:#f6ec80"
         inkscape:connector-curvature="0"
         d="m 39.521,252.244 c 1.846,5.102 5.038,10.723 7.371,15.813 1.178,2.57 2.673,7.041 4.353,8.854 1.347,-4.495 4.106,-8.559 5.867,-12.883 1.658,-4.07 2.992,-8.309 4.553,-12.409 -2.101,6.314 -8.643,10.368 -10.799,16.806 -4.296,-4.514 -5.974,-11.07 -10.976,-15.074"
         id="path781" />
      <path
         style="fill:#f6ec80"
         inkscape:connector-curvature="0"
         d="m 74.169,252.98 c -4.993,-3.189 -8.24,11.287 -7.759,14.465 0.817,5.408 5.607,11.48 10.727,6.546 3.782,-3.645 3.742,-9.578 2.643,-14.292 -0.825,-3.535 -6.247,-12.053 -8.927,-4.139"
         id="path783" />
    </g>
    <g
       id="now_playing"
       inkscape:label="#g5788">
      <path
         id="path877"
         d="m 281.454,549.56849 c 1.838,-3.47 2.726,-7.835 4.182,-11.5 1.583,-3.985 3.004,-8.069 4.513,-11.924 1.096,4.056 2.143,8.155 3.251,12.168 1.109,4.016 1.454,9.515 3.011,12.973 -1.573,-2.87 -3.538,-4.94 -4.744,-8.18 -1.388,-0.154 -2.701,-0.614 -3.92,-0.999 -0.797,3.098 -4.47,5.527 -6.292,7.961"
         style="fill:#f6ec80"
         inkscape:connector-curvature="0" />
      <path
         id="path879"
         d="m 300.204,550.56849 c 0,-7.594 0.583,-14.934 1.043,-22.468 3.491,1.37 2.108,7.422 3.25,10.174 1.031,-0.042 1.962,-0.309 2.961,-0.05 0.99,-3.421 2.318,-6.677 3.245,-10.081 1.096,3.397 0.246,8.331 0.25,11.924 0.002,1.888 -0.106,10.149 -1.458,10.719 -0.531,-2.445 -1.414,-4.971 -2.086,-7.425 -2.959,0.104 -3.799,-1.042 -5.15,2.012 -0.777,1.757 -1.73,3.784 -2.307,5.444"
         style="fill:#f6ec80"
         inkscape:connector-curvature="0" />
      <path
         id="path881"
         d="m 316.454,529.56849 c -2.858,2.31 -2.651,22.864 2.5,21.443 3.612,-0.996 3.758,-9.067 3.75,-11.943 -0.009,-3.293 -0.426,-9.274 -4.5,-9.75 -1.348,-0.157 -2.505,-0.031 -2.5,1.5"
         style="fill:#f6ec80"
         inkscape:connector-curvature="0" />
      <path
         id="path883"
         d="m 329.704,550.06849 c 0,-3.014 0.156,-7.301 0.5,-10.75 0.256,-2.565 -0.544,-9.903 1.306,-11.438 3.456,-2.867 7.073,2.379 7.5,5.188 0.45,2.962 -2.691,5.857 -5.773,6.037 2.052,3.512 5.142,7.406 6.685,11.169 -3.026,0.344 -6.352,-5.059 -7.48,-7.368 0.043,2.536 0.159,6.601 -2.195,8.075 -0.042,-0.216 -0.337,-1.211 -0.292,-0.913"
         style="fill:#f6ec80"
         inkscape:connector-curvature="0" />
      <path
         id="path885"
         d="m 343.204,549.81849 c -0.104,0.264 -0.13,0.491 -0.331,0.718 1.406,-1.818 2.684,-4.615 3.874,-6.924 2.663,-0.138 2.919,0.07 4.144,2.262 0.839,1.501 1.919,3.499 3.019,4.412 0.094,-3.92 -1.658,-7.918 -2.894,-11.717 -0.823,-2.528 -1.944,-8.314 -3.764,-9.975 -2.105,6.222 -3.798,14.487 -4.048,21.224"
         style="fill:#f6ec80"
         inkscape:connector-curvature="0" />
      <path
         id="path887"
         d="m 379.454,528.81849 c 0.216,-0.16 0.421,0.185 0.474,-0.188 -6.724,-4.316 -8.095,7.472 -7.53,11.383 0.351,2.425 0.488,6.501 2.987,7.874 2.294,1.26 6.007,0.152 7.043,-2.28 -4.962,1.472 -6.5,-2.107 -6.725,-6.532 -0.117,-2.291 -0.25,-4.565 0.812,-6.5 0.708,-1.29 3.131,-2.831 3.188,-3.756"
         style="fill:#f6ec80"
         inkscape:connector-curvature="0" />
      <path
         id="path889"
         d="m 386.454,549.31849 c -0.228,-2.961 3.299,-21.083 6.463,-21.211 -0.208,4.037 0.93,7.9 2.03,11.711 0.9,3.118 3.768,7.392 2.208,10.717 -1.743,-1.35 -3.761,-7.803 -5.949,-7.722 -1.667,0.062 -3.073,6.446 -4.958,7.986 -0.038,-0.68 -0.008,-1.358 0.207,-1.981"
         style="fill:#f6ec80"
         inkscape:connector-curvature="0" />
      <path
         id="path891"
         d="m 409.454,528.31849 c -6.455,-0.182 -6.512,7.468 -6.75,12.25 -0.252,5.048 3.267,12.543 8.98,7.551 -5.67,0.409 -5.784,-4.564 -5.73,-9.051 0.024,-2.074 0.041,-4.363 0.75,-6.237 0.854,-2.253 2.508,-2.395 3.724,-4.213 -0.53,-0.057 -1.184,-0.137 -1.724,-0.05"
         style="fill:#f6ec80"
         inkscape:connector-curvature="0" />
      <path
         id="path893"
         d="m 415.954,528.81849 c -2.623,3.14 -1.527,9.591 -0.987,13.25 0.321,2.176 0.635,10.697 4.555,8.318 5.36,-3.254 4.639,-25.905 -3.123,-22.129 -0.901,0.439 -1.54,0.793 -1.944,1.812"
         style="fill:#f6ec80"
         inkscape:connector-curvature="0" />
      <path
         id="path895"
         d="m 427.454,550.06849 c 1.189,-2.773 -0.114,-7.481 -0.263,-10.562 -0.162,-3.363 0.123,-6.974 -0.144,-9.956 5.26,-0.918 7.503,5.778 7.406,9.769 -0.113,4.659 -3.936,8.246 -7.036,11.411 0.275,-0.275 0.538,-0.626 0.786,-0.912"
         style="fill:#f6ec80"
         inkscape:connector-curvature="0" />
      <path
         id="path897"
         d="m 445.204,528.56849 c -2.974,1.302 -5.383,-0.513 -5.756,4.013 -0.258,3.136 -0.591,6.088 -0.744,9.237 -0.094,1.933 -1.164,6.742 0.494,7.756 1.62,0.99 6.717,-0.359 7.792,-0.749 -1.94,-0.318 -3.705,-0.441 -5.747,-0.544 0.15,-2.371 0.37,-4.896 0.499,-7.425 1.506,-0.086 2.924,-0.59 4.442,-0.843 -1.405,-0.91 -2.881,-1.543 -4.692,-1.482 0.181,-1.999 -0.351,-5.12 1.031,-6.649 1.313,-1.452 4.181,-1.739 5.661,-3.007 -1.567,-0.156 -2.873,0.671 -4.23,0.443"
         style="fill:#f6ec80"
         inkscape:connector-curvature="0" />
      <path
         id="path899"
         d="m 452.204,529.31849 c -1.037,1.82 -0.416,7.522 -0.813,10.25 -0.39,2.68 -1.199,6.841 -0.144,9.457 2.456,0.144 7.528,0.722 9.236,-0.963 -1.299,-1.067 -3.098,-1.445 -4.518,-2.299 -2.383,-1.434 -2.134,-2.542 -2.263,-5.194 -0.144,-2.948 0.421,-9.379 -1.5,-11.5"
         style="fill:#f6ec80"
         inkscape:connector-curvature="0" />
      <path
         id="path901"
         d="m 464.704,550.31849 c -0.663,-1.795 -0.221,-4.315 -0.513,-6.25 -0.341,-2.254 -0.487,-4.4 -0.487,-6.751 0,-1.893 -0.815,-5.303 -0.25,-6.999 0.544,-1.63 3.076,-2.12 5,-1.763 4.351,0.807 6.147,6.38 2.563,8.825 -1.357,0.926 -3.044,1.039 -4.131,2.368 -1.147,1.403 -0.999,3.801 -1.237,5.514 -0.254,1.827 -0.309,4.012 -0.95,5.724 0.007,-0.222 0.003,-0.445 0.005,-0.668"
         style="fill:#f6ec80"
         inkscape:connector-curvature="0" />
      <path
         id="path903"
         d="m 475.704,550.31849 c -0.175,0.209 0.193,0.42 -0.194,0.48 -0.411,-3.818 0.812,-8.813 1.194,-12.717 0.317,-3.236 -0.344,-7.063 0.432,-10.187 1.079,1.837 0.909,4.67 1.312,6.668 0.442,2.2 0.704,4.124 0.813,6.45 0.181,3.891 -1.094,7.788 -4.03,10.718 0.356,-0.275 0.646,-0.602 0.975,-0.912"
         style="fill:#f6ec80"
         inkscape:connector-curvature="0" />
      <path
         id="path905"
         d="m 482.954,550.56849 c -0.647,-0.316 3.634,-20.768 4.943,-22.981 0.409,3.816 2.218,7.615 2.801,11.481 0.603,3.996 1.981,7.817 2.761,11.787 -0.8,-1.921 -4.711,-4.44 -4.543,-6.999 -0.565,-0.145 -1.609,-0.146 -2.175,0 -0.441,2.939 -1.635,5.828 -3.787,7.212"
         style="fill:#f6ec80"
         inkscape:connector-curvature="0" />
      <path
         id="path907"
         d="m 289.454,534.06849 c -1.287,1.317 -1.528,3.939 -1.718,5.712 0.938,0.222 1.911,0.394 2.93,0.25 0.202,-2.402 -0.639,-3.858 -1.212,-5.962"
         style="fill:#a81e7b"
         inkscape:connector-curvature="0" />
      <path
         id="path909"
         d="m 318.204,536.31849 c -1.311,1.813 -0.822,5.081 -0.712,7.212 5.741,0.995 1.208,-10.64 -0.038,-6.712"
         style="fill:#a81e7b"
         inkscape:connector-curvature="0" />
      <path
         id="path911"
         d="m 332.704,535.56849 c -0.005,-1.529 -0.08,-3.004 -0.212,-4.462 1.721,-0.632 3.406,0.214 3.212,2.212 -0.163,1.679 -1.517,1.998 -2.75,2.5"
         style="fill:#a81e7b"
         inkscape:connector-curvature="0" />
      <path
         id="path913"
         d="m 346.454,541.06849 c 0.186,-1.896 0.474,-4.293 1.313,-5.974 0.983,1.292 0.896,4.311 1.155,5.931 -0.778,0.05 -1.679,0.143 -2.468,0.043"
         style="fill:#a81e7b"
         inkscape:connector-curvature="0" />
      <path
         id="path915"
         d="m 390.704,534.81849 c -0.118,1.42 -0.93,3.185 -1.219,4.694 3.749,2.834 2.771,-4.104 1.469,-4.694"
         style="fill:#a81e7b"
         inkscape:connector-curvature="0" />
      <path
         id="path917"
         d="m 417.954,534.56849 c 0.661,1.375 -2.024,8.026 0.457,8.206 0.967,-2.078 1.411,-6.088 1.005,-8.418 -0.712,-0.247 -0.82,0.094 -1.212,0.462"
         style="fill:#a81e7b"
         inkscape:connector-curvature="0" />
      <path
         id="path919"
         d="m 430.204,543.06849 c -0.686,-1.862 -0.728,-5.805 -0.263,-7.662 2.653,2.676 1.28,5.083 0.263,7.662"
         style="fill:#a81e7b"
         inkscape:connector-curvature="0" />
      <path
         id="path921"
         d="m 466.454,535.56849 c -0.566,-0.222 -0.501,-2.278 -0.567,-3.468 -0.095,-0.087 -0.102,-0.083 -0.019,0.014 1.73,1.316 3.599,4.129 -0.164,3.454"
         style="fill:#a81e7b"
         inkscape:connector-curvature="0" />
      <path
         id="path923"
         d="m 486.954,541.06849 c -0.194,-1.837 0.269,-3.891 1.262,-5.412 -0.029,1.873 0.045,3.77 -0.05,5.629 -0.349,0.035 -0.625,-0.076 -0.962,-0.218"
         style="fill:#a81e7b"
         inkscape:connector-curvature="0" />
    </g>
  </g>
</svg>
